{
  "asset": {
    "generator": "glTF-Transform v4.2.1",
    "version": "2.0"
  },
  "accessors": [
    {
      "type": "VEC3",
      "componentType": 5126,
      "count": 16341,
      "max": [
        5.597724437713623,
        14.083292961120605,
        5.29796838760376
      ],
      "min": [
        -5.597724437713623,
        -5.219935417175293,
        -6.0472002029418945
      ],
      "bufferView": 0,
      "byteOffset": 0
    },
    {
      "type": "VEC3",
      "componentType": 5126,
      "count": 16341,
      "bufferView": 0,
      "byteOffset": 12
    },
    {
      "type": "VEC2",
      "componentType": 5126,
      "count": 16341,
      "bufferView": 0,
      "byteOffset": 24
    },
    {
      "type": "VEC3",
      "componentType": 5126,
      "count": 16341,
      "max": [
        0.37732839584350586,
        0,
        0
      ],
      "min": [
        -0.37732839584350586,
        0,
        0
      ],
      "bufferView": 1,
      "byteOffset": 0
    },
    {
      "type": "VEC3",
      "componentType": 5126,
      "count": 16341,
      "bufferView": 1,
      "byteOffset": 12
    },
    {
      "type": "VEC3",
      "componentType": 5126,
      "count": 16341,
      "max": [
        0.22017419338226318,
        0.2918109893798828,
        0.09046769142150879
      ],
      "min": [
        -0.22017419338226318,
        -0.2839779853820801,
        -0.029386281967163086
      ],
      "bufferView": 2,
      "byteOffset": 0
    },
    {
      "type": "VEC3",
      "componentType": 5126,
      "count": 16341,
      "bufferView": 2,
      "byteOffset": 12
    },
    {
      "type": "VEC3",
      "componentType": 5126,
      "count": 16341,
      "max": [
        0.4219214618206024,
        0.3061652183532715,
        0.09704422950744629
      ],
      "min": [
        -0.42168888449668884,
        -0.26932334899902344,
        -0.049385666847229004
      ],
      "bufferView": 3,
      "byteOffset": 0
    },
    {
      "type": "VEC3",
      "componentType": 5126,
      "count": 16341,
      "bufferView": 3,
      "byteOffset": 12
    },
    {
      "type": "VEC3",
      "componentType": 5126,
      "count": 16341,
      "max": [
        0.0011358261108398438,
        0,
        0
      ],
      "min": [
        -0.8456361293792725,
        -1.8724756240844727,
        -0.04919964075088501
      ],
      "bufferView": 4,
      "byteOffset": 0
    },
    {
      "type": "VEC3",
      "componentType": 5126,
      "count": 16341,
      "bufferView": 4,
      "byteOffset": 12
    },
    {
      "type": "VEC3",
      "componentType": 5126,
      "count": 16341,
      "max": [
        1.2922606468200684,
        0.04622483253479004,
        1.2367866039276123
      ],
      "min": [
        -1.2922604084014893,
        -1.385523796081543,
        -1.2367866039276123
      ],
      "bufferView": 5,
      "byteOffset": 0
    },
    {
      "type": "VEC3",
      "componentType": 5126,
      "count": 16341,
      "bufferView": 5,
      "byteOffset": 12
    },
    {
      "type": "VEC3",
      "componentType": 5126,
      "count": 16341,
      "max": [
        0.6983177661895752,
        0.2308359146118164,
        0.09321713447570801
      ],
      "min": [
        -0.7159636616706848,
        -0.15933656692504883,
        -0.4832414388656616
      ],
      "bufferView": 6,
      "byteOffset": 0
    },
    {
      "type": "VEC3",
      "componentType": 5126,
      "count": 16341,
      "bufferView": 6,
      "byteOffset": 12
    },
    {
      "type": "VEC3",
      "componentType": 5126,
      "count": 16341,
      "max": [
        0.6541674137115479,
        0.005875110626220703,
        0.05569875240325928
      ],
      "min": [
        -0.15583181381225586,
        -1.7505455017089844,
        -0.002805262804031372
      ],
      "bufferView": 7,
      "byteOffset": 0
    },
    {
      "type": "VEC3",
      "componentType": 5126,
      "count": 16341,
      "bufferView": 7,
      "byteOffset": 12
    },
    {
      "type": "VEC3",
      "componentType": 5126,
      "count": 16341,
      "max": [
        0.15112978219985962,
        0.609619140625,
        0.09233355522155762
      ],
      "min": [
        -0.15112978219985962,
        -0.6503620147705078,
        -0.04316973686218262
      ],
      "bufferView": 8,
      "byteOffset": 0
    },
    {
      "type": "VEC3",
      "componentType": 5126,
      "count": 16341,
      "bufferView": 8,
      "byteOffset": 12
    },
    {
      "type": "VEC3",
      "componentType": 5126,
      "count": 16341,
      "max": [
        0.32409465312957764,
        0.2918109893798828,
        0.09046769142150879
      ],
      "min": [
        -0.32409465312957764,
        -0.2839779853820801,
        -0.029386281967163086
      ],
      "bufferView": 9,
      "byteOffset": 0
    },
    {
      "type": "VEC3",
      "componentType": 5126,
      "count": 16341,
      "bufferView": 9,
      "byteOffset": 12
    },
    {
      "type": "SCALAR",
      "componentType": 5125,
      "count": 16341,
      "bufferView": 10,
      "byteOffset": 0
    }
  ],
  "bufferViews": [
    {
      "buffer": 0,
      "byteOffset": 0,
      "byteLength": 522912,
      "byteStride": 32,
      "target": 34962
    },
    {
      "buffer": 0,
      "byteOffset": 522912,
      "byteLength": 392184,
      "byteStride": 24,
      "target": 34962
    },
    {
      "buffer": 0,
      "byteOffset": 915096,
      "byteLength": 392184,
      "byteStride": 24,
      "target": 34962
    },
    {
      "buffer": 0,
      "byteOffset": 1307280,
      "byteLength": 392184,
      "byteStride": 24,
      "target": 34962
    },
    {
      "buffer": 0,
      "byteOffset": 1699464,
      "byteLength": 392184,
      "byteStride": 24,
      "target": 34962
    },
    {
      "buffer": 0,
      "byteOffset": 2091648,
      "byteLength": 392184,
      "byteStride": 24,
      "target": 34962
    },
    {
      "buffer": 0,
      "byteOffset": 2483832,
      "byteLength": 392184,
      "byteStride": 24,
      "target": 34962
    },
    {
      "buffer": 0,
      "byteOffset": 2876016,
      "byteLength": 392184,
      "byteStride": 24,
      "target": 34962
    },
    {
      "buffer": 0,
      "byteOffset": 3268200,
      "byteLength": 392184,
      "byteStride": 24,
      "target": 34962
    },
    {
      "buffer": 0,
      "byteOffset": 3660384,
      "byteLength": 392184,
      "byteStride": 24,
      "target": 34962
    },
    {
      "buffer": 0,
      "byteOffset": 4052568,
      "byteLength": 65364,
      "target": 34963
    }
  ],
  "buffers": [
    {
      "uri": "buffer.bin",
      "byteLength": 4117932
    }
  ],
  "materials": [
    {
      "name": "standardSurface1",
      "pbrMetallicRoughness": {
        "baseColorFactor": [
          0.4000000059604645,
          0.4000000059604645,
          0.4000000059604645,
          1
        ],
        "roughnessFactor": 0.5,
        "metallicFactor": 0
      },
      "emissiveFactor": [
        1,
        1,
        1
      ]
    }
  ],
  "meshes": [
    {
      "extras": {
        "targetNames": [
          "blendShape1.nose_geo",
          "blendShape1.O_geo",
          "blendShape1.E_geo",
          "blendShape1.ear_right_geo",
          "blendShape1.squuez_geo",
          "blendShape1.I_geo",
          "blendShape1.ear_left_geo",
          "blendShape1.A_geo",
          "blendShape1.U_geo"
        ]
      },
      "primitives": [
        {
          "attributes": {
            "POSITION": 0,
            "NORMAL": 1,
            "TEXCOORD_0": 2
          },
          "mode": 4,
          "material": 0,
          "indices": 21,
          "targets": [
            {
              "POSITION": 3,
              "NORMAL": 4
            },
            {
              "POSITION": 5,
              "NORMAL": 6
            },
            {
              "POSITION": 7,
              "NORMAL": 8
            },
            {
              "POSITION": 9,
              "NORMAL": 10
            },
            {
              "POSITION": 11,
              "NORMAL": 12
            },
            {
              "POSITION": 13,
              "NORMAL": 14
            },
            {
              "POSITION": 15,
              "NORMAL": 16
            },
            {
              "POSITION": 17,
              "NORMAL": 18
            },
            {
              "POSITION": 19,
              "NORMAL": 20
            }
          ]
        }
      ],
      "weights": [
        0,
        0,
        0,
        0,
        0,
        0,
        0,
        0,
        0
      ]
    }
  ],
  "nodes": [
    {
      "name": "honk_geo1",
      "translation": [
        -0.05295678973197937,
        0,
        0
      ],
      "mesh": 0
    },
    {
      "name": "FBX_Root",
      "children": [
        0
      ]
    }
  ],
  "scenes": [
    {
      "name": "empty_1",
      "nodes": [
        1
      ]
    }
  ],
  "scene": 0
}